# xmcd CD database file
#
# Track frame offsets:
#	150
#	23102
#	48029
#	71371
#	97444
#	112058
#	134376
#	151745
#	173502
#	190627
#	212750
#	233605
#	251486
#	273950
#	289758
#
# Disc length: 4247 seconds
#
# Revision: 0
# Processed by: cddbd v1.5.2PL0 Copyright (c) Steve Scherf et al.
# Submitted via: CDex 2.20
#
DISCID=c910950f
DTITLE=The Dapper Dandies - Brand New Old New Orleans Jazz
DYEAR=2019
DGENRE=Jazz
TTITLE0=Milenburg Joys
TTITLE1=Delta Bound
TTITLE2=I Ain't Gonna Give  Nobody None of My  Jelly Roll
TTITLE3=Tain't No Use
TTITLE4=It's a Sin to Tell a Lie
TTITLE5=Someday Sweetheart
TTITLE6=Some of These Days
TTITLE7=Last Night on the Back  Porch
TTITLE8=Dinah
TTITLE9=Sweet Lotus Blossom
TTITLE10=Hesitating Blues
TTITLE11=Blues My Naughty Sweetie Gives to Me
TTITLE12=Shine On Harvest Moon
TTITLE13=That's a Plenty
TTITLE14=Dark Eyes
EXTD=YEAR: 2019
EXTT0=
EXTT1=
EXTT2=
EXTT3=
EXTT4=
EXTT5=
EXTT6=
EXTT7=
EXTT8=
EXTT9=
EXTT10=
EXTT11=
EXTT12=
EXTT13=
EXTT14=
PLAYORDER=
